<mxfile host="app.diagrams.net" modified="2024-05-22T11:22:10.426Z" agent="Mozilla/5.0 (Windows NT 10.0; Win64; x64) AppleWebKit/537.36 (KHTML, like Gecko) Chrome/121.0.0.0 Safari/537.36" etag="QgSO6RUSmA2Zwo0A5wYQ" version="24.4.4" type="device">
  <diagram name="Página-1" id="YPFho-8K7EYmHgmnL9An">
    <mxGraphModel dx="4780" dy="3776" grid="1" gridSize="10" guides="1" tooltips="1" connect="1" arrows="1" fold="1" page="1" pageScale="1" pageWidth="827" pageHeight="1169" math="0" shadow="0">
      <root>
        <mxCell id="0" />
        <mxCell id="1" parent="0" />
        <mxCell id="uwvaFcutliOrlNOGlPTh-53" value="" style="edgeStyle=orthogonalEdgeStyle;rounded=0;orthogonalLoop=1;jettySize=auto;html=1;" edge="1" parent="1" source="uwvaFcutliOrlNOGlPTh-1" target="uwvaFcutliOrlNOGlPTh-52">
          <mxGeometry relative="1" as="geometry" />
        </mxCell>
        <mxCell id="uwvaFcutliOrlNOGlPTh-1" value="Entrar no app" style="ellipse;whiteSpace=wrap;html=1;" vertex="1" parent="1">
          <mxGeometry x="60" y="-170" width="150" height="80" as="geometry" />
        </mxCell>
        <mxCell id="uwvaFcutliOrlNOGlPTh-5" value="" style="edgeStyle=orthogonalEdgeStyle;rounded=0;orthogonalLoop=1;jettySize=auto;html=1;" edge="1" parent="1" source="uwvaFcutliOrlNOGlPTh-2" target="uwvaFcutliOrlNOGlPTh-4">
          <mxGeometry relative="1" as="geometry" />
        </mxCell>
        <mxCell id="uwvaFcutliOrlNOGlPTh-2" value="Nome do Usuário" style="rounded=0;whiteSpace=wrap;html=1;" vertex="1" parent="1">
          <mxGeometry x="75" y="130" width="120" height="60" as="geometry" />
        </mxCell>
        <mxCell id="uwvaFcutliOrlNOGlPTh-7" value="" style="edgeStyle=orthogonalEdgeStyle;rounded=0;orthogonalLoop=1;jettySize=auto;html=1;" edge="1" parent="1" source="uwvaFcutliOrlNOGlPTh-4" target="uwvaFcutliOrlNOGlPTh-6">
          <mxGeometry relative="1" as="geometry" />
        </mxCell>
        <mxCell id="uwvaFcutliOrlNOGlPTh-4" value="Colocar E-mail" style="rounded=0;whiteSpace=wrap;html=1;" vertex="1" parent="1">
          <mxGeometry x="75" y="220" width="120" height="60" as="geometry" />
        </mxCell>
        <mxCell id="uwvaFcutliOrlNOGlPTh-9" value="" style="edgeStyle=orthogonalEdgeStyle;rounded=0;orthogonalLoop=1;jettySize=auto;html=1;" edge="1" parent="1" source="uwvaFcutliOrlNOGlPTh-6" target="uwvaFcutliOrlNOGlPTh-8">
          <mxGeometry relative="1" as="geometry" />
        </mxCell>
        <mxCell id="uwvaFcutliOrlNOGlPTh-13" value="" style="edgeStyle=orthogonalEdgeStyle;rounded=0;orthogonalLoop=1;jettySize=auto;html=1;" edge="1" parent="1" source="uwvaFcutliOrlNOGlPTh-6" target="uwvaFcutliOrlNOGlPTh-12">
          <mxGeometry relative="1" as="geometry" />
        </mxCell>
        <mxCell id="uwvaFcutliOrlNOGlPTh-6" value="E-mail já cadastrado?" style="rhombus;whiteSpace=wrap;html=1;" vertex="1" parent="1">
          <mxGeometry x="87.5" y="310" width="95" height="100" as="geometry" />
        </mxCell>
        <mxCell id="uwvaFcutliOrlNOGlPTh-10" style="edgeStyle=orthogonalEdgeStyle;rounded=0;orthogonalLoop=1;jettySize=auto;html=1;" edge="1" parent="1" source="uwvaFcutliOrlNOGlPTh-8">
          <mxGeometry relative="1" as="geometry">
            <mxPoint x="135" y="500" as="targetPoint" />
          </mxGeometry>
        </mxCell>
        <mxCell id="uwvaFcutliOrlNOGlPTh-32" style="edgeStyle=orthogonalEdgeStyle;rounded=0;orthogonalLoop=1;jettySize=auto;html=1;entryX=0;entryY=0.5;entryDx=0;entryDy=0;" edge="1" parent="1" source="uwvaFcutliOrlNOGlPTh-8" target="uwvaFcutliOrlNOGlPTh-27">
          <mxGeometry relative="1" as="geometry" />
        </mxCell>
        <mxCell id="uwvaFcutliOrlNOGlPTh-8" value="Não" style="text;html=1;align=center;verticalAlign=middle;whiteSpace=wrap;rounded=0;" vertex="1" parent="1">
          <mxGeometry x="105" y="440" width="60" height="30" as="geometry" />
        </mxCell>
        <mxCell id="uwvaFcutliOrlNOGlPTh-25" value="" style="edgeStyle=orthogonalEdgeStyle;rounded=0;orthogonalLoop=1;jettySize=auto;html=1;" edge="1" parent="1" source="uwvaFcutliOrlNOGlPTh-11" target="uwvaFcutliOrlNOGlPTh-24">
          <mxGeometry relative="1" as="geometry" />
        </mxCell>
        <mxCell id="uwvaFcutliOrlNOGlPTh-46" value="" style="edgeStyle=orthogonalEdgeStyle;rounded=0;orthogonalLoop=1;jettySize=auto;html=1;" edge="1" parent="1" source="uwvaFcutliOrlNOGlPTh-11" target="uwvaFcutliOrlNOGlPTh-34">
          <mxGeometry relative="1" as="geometry" />
        </mxCell>
        <mxCell id="uwvaFcutliOrlNOGlPTh-11" value="O login está correto?" style="rhombus;whiteSpace=wrap;html=1;" vertex="1" parent="1">
          <mxGeometry x="82.5" y="500" width="105" height="105" as="geometry" />
        </mxCell>
        <mxCell id="uwvaFcutliOrlNOGlPTh-15" value="" style="edgeStyle=orthogonalEdgeStyle;rounded=0;orthogonalLoop=1;jettySize=auto;html=1;" edge="1" parent="1" source="uwvaFcutliOrlNOGlPTh-12" target="uwvaFcutliOrlNOGlPTh-14">
          <mxGeometry relative="1" as="geometry" />
        </mxCell>
        <mxCell id="uwvaFcutliOrlNOGlPTh-12" value="Sim" style="text;html=1;align=center;verticalAlign=middle;whiteSpace=wrap;rounded=0;" vertex="1" parent="1">
          <mxGeometry x="240" y="345" width="60" height="30" as="geometry" />
        </mxCell>
        <mxCell id="uwvaFcutliOrlNOGlPTh-17" value="" style="edgeStyle=orthogonalEdgeStyle;rounded=0;orthogonalLoop=1;jettySize=auto;html=1;" edge="1" parent="1" source="uwvaFcutliOrlNOGlPTh-14" target="uwvaFcutliOrlNOGlPTh-16">
          <mxGeometry relative="1" as="geometry" />
        </mxCell>
        <mxCell id="uwvaFcutliOrlNOGlPTh-14" value="Logar E-mail" style="rounded=0;whiteSpace=wrap;html=1;" vertex="1" parent="1">
          <mxGeometry x="330" y="330" width="120" height="60" as="geometry" />
        </mxCell>
        <mxCell id="uwvaFcutliOrlNOGlPTh-22" value="" style="edgeStyle=orthogonalEdgeStyle;rounded=0;orthogonalLoop=1;jettySize=auto;html=1;" edge="1" parent="1" source="uwvaFcutliOrlNOGlPTh-16" target="uwvaFcutliOrlNOGlPTh-20">
          <mxGeometry relative="1" as="geometry" />
        </mxCell>
        <mxCell id="uwvaFcutliOrlNOGlPTh-16" value="Senha correta?" style="rhombus;whiteSpace=wrap;html=1;" vertex="1" parent="1">
          <mxGeometry x="520" y="310" width="100" height="100" as="geometry" />
        </mxCell>
        <mxCell id="uwvaFcutliOrlNOGlPTh-48" style="edgeStyle=orthogonalEdgeStyle;rounded=0;orthogonalLoop=1;jettySize=auto;html=1;entryX=1;entryY=0.75;entryDx=0;entryDy=0;" edge="1" parent="1" source="uwvaFcutliOrlNOGlPTh-20" target="uwvaFcutliOrlNOGlPTh-34">
          <mxGeometry relative="1" as="geometry">
            <Array as="points">
              <mxPoint x="700" y="765" />
            </Array>
          </mxGeometry>
        </mxCell>
        <mxCell id="uwvaFcutliOrlNOGlPTh-20" value="Sim" style="text;html=1;align=center;verticalAlign=middle;whiteSpace=wrap;rounded=0;" vertex="1" parent="1">
          <mxGeometry x="670" y="345" width="60" height="30" as="geometry" />
        </mxCell>
        <mxCell id="uwvaFcutliOrlNOGlPTh-28" value="" style="edgeStyle=orthogonalEdgeStyle;rounded=0;orthogonalLoop=1;jettySize=auto;html=1;" edge="1" parent="1" source="uwvaFcutliOrlNOGlPTh-21" target="uwvaFcutliOrlNOGlPTh-27">
          <mxGeometry relative="1" as="geometry" />
        </mxCell>
        <mxCell id="uwvaFcutliOrlNOGlPTh-47" style="edgeStyle=orthogonalEdgeStyle;rounded=0;orthogonalLoop=1;jettySize=auto;html=1;entryX=0.5;entryY=1;entryDx=0;entryDy=0;" edge="1" parent="1" source="uwvaFcutliOrlNOGlPTh-21" target="uwvaFcutliOrlNOGlPTh-16">
          <mxGeometry relative="1" as="geometry">
            <mxPoint x="700" y="380" as="targetPoint" />
          </mxGeometry>
        </mxCell>
        <mxCell id="uwvaFcutliOrlNOGlPTh-21" value="Esqueceu a Senha" style="rounded=0;whiteSpace=wrap;html=1;" vertex="1" parent="1">
          <mxGeometry x="340" y="522.5" width="120" height="60" as="geometry" />
        </mxCell>
        <mxCell id="uwvaFcutliOrlNOGlPTh-26" value="" style="edgeStyle=orthogonalEdgeStyle;rounded=0;orthogonalLoop=1;jettySize=auto;html=1;" edge="1" parent="1" source="uwvaFcutliOrlNOGlPTh-24" target="uwvaFcutliOrlNOGlPTh-21">
          <mxGeometry relative="1" as="geometry" />
        </mxCell>
        <mxCell id="uwvaFcutliOrlNOGlPTh-24" value="Não" style="text;html=1;align=center;verticalAlign=middle;whiteSpace=wrap;rounded=0;" vertex="1" parent="1">
          <mxGeometry x="230" y="538" width="60" height="30" as="geometry" />
        </mxCell>
        <mxCell id="uwvaFcutliOrlNOGlPTh-27" value="criar&amp;nbsp; uma senha nova" style="text;html=1;align=center;verticalAlign=middle;whiteSpace=wrap;rounded=0;" vertex="1" parent="1">
          <mxGeometry x="370" y="440" width="60" height="30" as="geometry" />
        </mxCell>
        <mxCell id="uwvaFcutliOrlNOGlPTh-45" value="" style="edgeStyle=orthogonalEdgeStyle;rounded=0;orthogonalLoop=1;jettySize=auto;html=1;" edge="1" parent="1" source="uwvaFcutliOrlNOGlPTh-33" target="uwvaFcutliOrlNOGlPTh-34">
          <mxGeometry relative="1" as="geometry" />
        </mxCell>
        <mxCell id="uwvaFcutliOrlNOGlPTh-33" value="Sim" style="text;html=1;align=center;verticalAlign=middle;whiteSpace=wrap;rounded=0;" vertex="1" parent="1">
          <mxGeometry x="105" y="650" width="60" height="30" as="geometry" />
        </mxCell>
        <mxCell id="uwvaFcutliOrlNOGlPTh-44" value="" style="edgeStyle=orthogonalEdgeStyle;rounded=0;orthogonalLoop=1;jettySize=auto;html=1;" edge="1" parent="1" source="uwvaFcutliOrlNOGlPTh-34" target="uwvaFcutliOrlNOGlPTh-35">
          <mxGeometry relative="1" as="geometry" />
        </mxCell>
        <mxCell id="uwvaFcutliOrlNOGlPTh-34" value="Criar conta" style="rounded=0;whiteSpace=wrap;html=1;" vertex="1" parent="1">
          <mxGeometry x="75" y="720" width="120" height="60" as="geometry" />
        </mxCell>
        <mxCell id="uwvaFcutliOrlNOGlPTh-43" value="" style="edgeStyle=orthogonalEdgeStyle;rounded=0;orthogonalLoop=1;jettySize=auto;html=1;" edge="1" parent="1" source="uwvaFcutliOrlNOGlPTh-35" target="uwvaFcutliOrlNOGlPTh-36">
          <mxGeometry relative="1" as="geometry" />
        </mxCell>
        <mxCell id="uwvaFcutliOrlNOGlPTh-35" value="Enviar E-mail&lt;div&gt;de verificação&lt;/div&gt;" style="rounded=0;whiteSpace=wrap;html=1;" vertex="1" parent="1">
          <mxGeometry x="75" y="840" width="120" height="60" as="geometry" />
        </mxCell>
        <mxCell id="uwvaFcutliOrlNOGlPTh-42" value="" style="edgeStyle=orthogonalEdgeStyle;rounded=0;orthogonalLoop=1;jettySize=auto;html=1;" edge="1" parent="1" source="uwvaFcutliOrlNOGlPTh-36" target="uwvaFcutliOrlNOGlPTh-37">
          <mxGeometry relative="1" as="geometry" />
        </mxCell>
        <mxCell id="uwvaFcutliOrlNOGlPTh-36" value="Verificação de E-mail" style="rounded=0;whiteSpace=wrap;html=1;" vertex="1" parent="1">
          <mxGeometry x="260" y="840" width="120" height="60" as="geometry" />
        </mxCell>
        <mxCell id="uwvaFcutliOrlNOGlPTh-40" value="" style="edgeStyle=orthogonalEdgeStyle;rounded=0;orthogonalLoop=1;jettySize=auto;html=1;" edge="1" parent="1" source="uwvaFcutliOrlNOGlPTh-37" target="uwvaFcutliOrlNOGlPTh-38">
          <mxGeometry relative="1" as="geometry" />
        </mxCell>
        <mxCell id="uwvaFcutliOrlNOGlPTh-49" style="edgeStyle=orthogonalEdgeStyle;rounded=0;orthogonalLoop=1;jettySize=auto;html=1;" edge="1" parent="1" source="uwvaFcutliOrlNOGlPTh-37">
          <mxGeometry relative="1" as="geometry">
            <mxPoint x="525" y="970" as="targetPoint" />
          </mxGeometry>
        </mxCell>
        <mxCell id="uwvaFcutliOrlNOGlPTh-37" value="Foi sucedido?" style="rhombus;whiteSpace=wrap;html=1;" vertex="1" parent="1">
          <mxGeometry x="470" y="820" width="110" height="100" as="geometry" />
        </mxCell>
        <mxCell id="uwvaFcutliOrlNOGlPTh-41" value="" style="edgeStyle=orthogonalEdgeStyle;rounded=0;orthogonalLoop=1;jettySize=auto;html=1;" edge="1" parent="1" source="uwvaFcutliOrlNOGlPTh-38" target="uwvaFcutliOrlNOGlPTh-39">
          <mxGeometry relative="1" as="geometry" />
        </mxCell>
        <mxCell id="uwvaFcutliOrlNOGlPTh-38" value="Não" style="text;html=1;align=center;verticalAlign=middle;whiteSpace=wrap;rounded=0;" vertex="1" parent="1">
          <mxGeometry x="610" y="855" width="60" height="30" as="geometry" />
        </mxCell>
        <mxCell id="uwvaFcutliOrlNOGlPTh-39" value="Investigar E-mail" style="rounded=0;whiteSpace=wrap;html=1;" vertex="1" parent="1">
          <mxGeometry x="707" y="840" width="120" height="60" as="geometry" />
        </mxCell>
        <mxCell id="uwvaFcutliOrlNOGlPTh-50" value="Fim" style="ellipse;whiteSpace=wrap;html=1;" vertex="1" parent="1">
          <mxGeometry x="470" y="970" width="120" height="80" as="geometry" />
        </mxCell>
        <mxCell id="uwvaFcutliOrlNOGlPTh-51" value="Sim" style="text;html=1;align=center;verticalAlign=middle;whiteSpace=wrap;rounded=0;" vertex="1" parent="1">
          <mxGeometry x="450" y="920" width="60" height="30" as="geometry" />
        </mxCell>
        <mxCell id="uwvaFcutliOrlNOGlPTh-54" value="" style="edgeStyle=orthogonalEdgeStyle;rounded=0;orthogonalLoop=1;jettySize=auto;html=1;" edge="1" parent="1" source="uwvaFcutliOrlNOGlPTh-52" target="uwvaFcutliOrlNOGlPTh-2">
          <mxGeometry relative="1" as="geometry" />
        </mxCell>
        <mxCell id="uwvaFcutliOrlNOGlPTh-52" value="Clicar em criar novo usuário" style="rounded=0;whiteSpace=wrap;html=1;" vertex="1" parent="1">
          <mxGeometry x="75" y="-40" width="120" height="60" as="geometry" />
        </mxCell>
      </root>
    </mxGraphModel>
  </diagram>
</mxfile>
